<svg width="400" height="566" viewBox="0 0 400 566" xmlns="http://www.w3.org/2000/svg">
  <!-- Fondo -->
  <rect width="400" height="566" fill="#ffffff"/>
  
  <!-- Header académico formal -->
  <rect x="50" y="40" width="300" height="1" fill="#10b981"/>
  <rect x="150" y="55" width="100" height="14" fill="#1f2937"/>
  <rect x="140" y="75" width="120" height="6" fill="#059669"/>
  <rect x="50" y="95" width="300" height="1" fill="#10b981"/>
  
  <!-- Info de contacto centrada -->
  <rect x="100" y="110" width="60" height="4" fill="#6b7280"/>
  <rect x="170" y="110" width="60" height="4" fill="#6b7280"/>
  <rect x="240" y="110" width="60" height="4" fill="#6b7280"/>
  
  <!-- Educación (destacada) -->
  <rect x="50" y="140" width="80" height="8" fill="#10b981"/>
  
  <rect x="60" y="165" width="110" height="7" fill="#1f2937"/>
  <rect x="310" y="165" width="40" height="5" fill="#6b7280"/>
  <rect x="60" y="178" width="85" height="5" fill="#374151"/>
  <rect x="60" y="192" width="270" height="3" fill="#9ca3af"/>
  <rect x="60" y="199" width="280" height="3" fill="#9ca3af"/>
  
  <rect x="60" y="220" width="110" height="7" fill="#1f2937"/>
  <rect x="310" y="220" width="40" height="5" fill="#6b7280"/>
  <rect x="60" y="233" width="85" height="5" fill="#374151"/>
  <rect x="60" y="247" width="270" height="3" fill="#9ca3af"/>
  
  <!-- Publicaciones / Investigación -->
  <rect x="50" y="280" width="100" height="8" fill="#10b981"/>
  
  <rect x="60" y="305" width="300" height="4" fill="#374151"/>
  <rect x="60" y="315" width="280" height="3" fill="#6b7280"/>
  <rect x="60" y="322" width="290" height="3" fill="#6b7280"/>
  
  <rect x="60" y="340" width="300" height="4" fill="#374151"/>
  <rect x="60" y="350" width="280" height="3" fill="#6b7280"/>
  
  <!-- Experiencia académica -->
  <rect x="50" y="380" width="120" height="8" fill="#10b981"/>
  
  <rect x="60" y="405" width="100" height="6" fill="#1f2937"/>
  <rect x="310" y="405" width="40" height="5" fill="#6b7280"/>
  <rect x="60" y="418" width="75" height="4" fill="#374151"/>
  <rect x="60" y="432" width="280" height="3" fill="#9ca3af"/>
  <rect x="60" y="439" width="290" height="3" fill="#9ca3af"/>
  <rect x="60" y="446" width="270" height="3" fill="#9ca3af"/>
  
  <!-- Habilidades técnicas -->
  <rect x="50" y="475" width="100" height="8" fill="#10b981"/>
  <rect x="60" y="495" width="45" height="4" fill="#6b7280"/>
  <rect x="115" y="495" width="45" height="4" fill="#6b7280"/>
  <rect x="170" y="495" width="45" height="4" fill="#6b7280"/>
  <rect x="225" y="495" width="45" height="4" fill="#6b7280"/>
</svg>
