<svg width="400" height="566" viewBox="0 0 400 566" xmlns="http://www.w3.org/2000/svg">
  <!-- Fondo blanco -->
  <rect width="400" height="566" fill="#ffffff"/>
  
  <!-- Header simple -->
  <rect x="30" y="30" width="340" height="80" fill="#f9fafb"/>
  <rect x="50" y="50" width="120" height="12" fill="#1f2937"/>
  <rect x="50" y="68" width="90" height="6" fill="#6b7280"/>
  <rect x="50" y="80" width="100" height="5" fill="#6b7280"/>
  <rect x="50" y="90" width="95" height="5" fill="#6b7280"/>
  
  <!-- Sección -->
  <rect x="30" y="130" width="340" height="1" fill="#e5e7eb"/>
  <rect x="30" y="145" width="80" height="8" fill="#1f2937"/>
  
  <rect x="40" y="165" width="100" height="6" fill="#374151"/>
  <rect x="40" y="177" width="70" height="4" fill="#6b7280"/>
  <rect x="40" y="190" width="320" height="3" fill="#9ca3af"/>
  <rect x="40" y="197" width="310" height="3" fill="#9ca3af"/>
  <rect x="40" y="204" width="300" height="3" fill="#9ca3af"/>
  
  <rect x="40" y="220" width="100" height="6" fill="#374151"/>
  <rect x="40" y="232" width="70" height="4" fill="#6b7280"/>
  <rect x="40" y="245" width="320" height="3" fill="#9ca3af"/>
  <rect x="40" y="252" width="310" height="3" fill="#9ca3af"/>
  
  <!-- Segunda sección -->
  <rect x="30" y="280" width="340" height="1" fill="#e5e7eb"/>
  <rect x="30" y="295" width="80" height="8" fill="#1f2937"/>
  
  <rect x="40" y="315" width="90" height="6" fill="#374151"/>
  <rect x="40" y="327" width="65" height="4" fill="#6b7280"/>
  <rect x="40" y="340" width="300" height="3" fill="#9ca3af"/>
  
  <rect x="40" y="355" width="90" height="6" fill="#374151"/>
  <rect x="40" y="367" width="65" height="4" fill="#6b7280"/>
  <rect x="40" y="380" width="300" height="3" fill="#9ca3af"/>
  
  <!-- Tercera sección -->
  <rect x="30" y="410" width="340" height="1" fill="#e5e7eb"/>
  <rect x="30" y="425" width="80" height="8" fill="#1f2937"/>
  
  <rect x="40" y="445" width="60" height="18" rx="4" fill="#dbeafe"/>
  <rect x="55" y="451" width="30" height="6" fill="#3b82f6"/>
  
  <rect x="110" y="445" width="60" height="18" rx="4" fill="#dbeafe"/>
  <rect x="125" y="451" width="30" height="6" fill="#3b82f6"/>
  
  <rect x="180" y="445" width="60" height="18" rx="4" fill="#dbeafe"/>
  <rect x="195" y="451" width="30" height="6" fill="#3b82f6"/>
</svg>
