<svg width="400" height="566" viewBox="0 0 400 566" xmlns="http://www.w3.org/2000/svg">
  <!-- Fondo -->
  <rect width="400" height="566" fill="#fffbf5"/>
  
  <!-- Header creativo -->
  <circle cx="70" cy="60" r="35" fill="url(#gradCreative)"/>
  <defs>
    <linearGradient id="gradCreative" x1="0%" y1="0%" x2="100%" y2="100%">
      <stop offset="0%" style="stop-color:#ec4899;stop-opacity:1" />
      <stop offset="100%" style="stop-color:#f43f5e;stop-opacity:1" />
    </linearGradient>
  </defs>
  
  <rect x="120" y="35" width="120" height="12" fill="#1f2937"/>
  <rect x="120" y="52" width="80" height="6" fill="#ec4899"/>
  <rect x="120" y="70" width="100" height="4" fill="#6b7280"/>
  <rect x="120" y="78" width="95" height="4" fill="#6b7280"/>
  <rect x="120" y="86" width="90" height="4" fill="#6b7280"/>
  
  <!-- Barra decorativa -->
  <rect x="30" y="120" width="340" height="3" fill="url(#gradCreative)"/>
  
  <!-- Sección con diseño creativo -->
  <rect x="30" y="145" width="70" height="8" fill="#ec4899"/>
  <rect x="30" y="165" width="340" height="4" fill="#374151"/>
  <rect x="30" y="173" width="330" height="4" fill="#374151"/>
  <rect x="30" y="181" width="320" height="4" fill="#374151"/>
  
  <!-- Bloques creativos -->
  <rect x="30" y="210" width="160" height="100" rx="8" fill="#fce7f3"/>
  <rect x="45" y="225" width="80" height="8" fill="#ec4899"/>
  <rect x="45" y="240" width="60" height="5" fill="#9ca3af"/>
  <rect x="45" y="255" width="120" height="3" fill="#d1d5db"/>
  <rect x="45" y="262" width="130" height="3" fill="#d1d5db"/>
  <rect x="45" y="269" width="115" height="3" fill="#d1d5db"/>
  
  <rect x="210" y="210" width="160" height="100" rx="8" fill="#fce7f3"/>
  <rect x="225" y="225" width="80" height="8" fill="#ec4899"/>
  <rect x="225" y="240" width="60" height="5" fill="#9ca3af"/>
  <rect x="225" y="255" width="120" height="3" fill="#d1d5db"/>
  <rect x="225" y="262" width="130" height="3" fill="#d1d5db"/>
  <rect x="225" y="269" width="115" height="3" fill="#d1d5db"/>
  
  <!-- Más secciones -->
  <rect x="30" y="330" width="70" height="8" fill="#ec4899"/>
  <rect x="40" y="355" width="50" height="25" rx="12" fill="#ec4899"/>
  <rect x="100" y="355" width="50" height="25" rx="12" fill="#ec4899"/>
  <rect x="160" y="355" width="50" height="25" rx="12" fill="#ec4899"/>
  <rect x="220" y="355" width="50" height="25" rx="12" fill="#ec4899"/>
</svg>
