<svg width="400" height="566" viewBox="0 0 400 566" xmlns="http://www.w3.org/2000/svg">
  <!-- Fondo -->
  <rect width="400" height="566" fill="#ffffff"/>
  
  <!-- Header elegante -->
  <rect width="400" height="120" fill="#1f2937"/>
  <rect x="50" y="40" width="140" height="14" fill="#ffffff"/>
  <rect x="50" y="62" width="100" height="6" fill="#9ca3af"/>
  <line x1="50" y1="80" x2="350" y2="80" stroke="#4b5563" stroke-width="1"/>
  <rect x="50" y="90" width="80" height="5" fill="#d1d5db"/>
  <rect x="145" y="90" width="90" height="5" fill="#d1d5db"/>
  <rect x="250" y="90" width="85" height="5" fill="#d1d5db"/>
  
  <!-- Contenido -->
  <rect x="50" y="150" width="100" height="10" fill="#1f2937"/>
  <rect x="50" y="170" width="300" height="4" fill="#6b7280"/>
  <rect x="50" y="178" width="310" height="4" fill="#6b7280"/>
  <rect x="50" y="186" width="290" height="4" fill="#6b7280"/>
  
  <rect x="50" y="210" width="100" height="10" fill="#1f2937"/>
  
  <rect x="60" y="235" width="120" height="8" fill="#374151"/>
  <rect x="290" y="235" width="60" height="6" fill="#9ca3af" text-anchor="end"/>
  <rect x="60" y="250" width="80" height="5" fill="#6b7280"/>
  <rect x="60" y="265" width="300" height="3" fill="#9ca3af"/>
  <rect x="60" y="272" width="310" height="3" fill="#9ca3af"/>
  <rect x="60" y="279" width="280" height="3" fill="#9ca3af"/>
  
  <rect x="60" y="300" width="120" height="8" fill="#374151"/>
  <rect x="290" y="300" width="60" height="6" fill="#9ca3af"/>
  <rect x="60" y="315" width="80" height="5" fill="#6b7280"/>
  <rect x="60" y="330" width="300" height="3" fill="#9ca3af"/>
  <rect x="60" y="337" width="310" height="3" fill="#9ca3af"/>
  
  <rect x="50" y="365" width="100" height="10" fill="#1f2937"/>
  
  <rect x="60" y="390" width="110" height="8" fill="#374151"/>
  <rect x="290" y="390" width="60" height="6" fill="#9ca3af"/>
  <rect x="60" y="405" width="250" height="3" fill="#9ca3af"/>
  
  <rect x="60" y="425" width="110" height="8" fill="#374151"/>
  <rect x="290" y="425" width="60" height="6" fill="#9ca3af"/>
  <rect x="60" y="440" width="250" height="3" fill="#9ca3af"/>
</svg>
