<svg width="400" height="566" viewBox="0 0 400 566" xmlns="http://www.w3.org/2000/svg">
  <!-- Fondo blanco minimalista -->
  <rect width="400" height="566" fill="#ffffff"/>
  
  <!-- Nombre simple centrado -->
  <rect x="100" y="50" width="200" height="16" fill="#0f172a"/>
  <rect x="140" y="75" width="120" height="6" fill="#64748b"/>
  
  <!-- Línea delgada -->
  <line x1="100" y1="100" x2="300" y2="100" stroke="#cbd5e1" stroke-width="1"/>
  
  <!-- Contacto minimalista -->
  <rect x="80" y="115" width="70" height="4" fill="#94a3b8"/>
  <rect x="160" y="115" width="80" height="4" fill="#94a3b8"/>
  <rect x="250" y="115" width="70" height="4" fill="#94a3b8"/>
  
  <!-- Sección 1 -->
  <rect x="50" y="150" width="60" height="6" fill="#0f172a"/>
  <rect x="50" y="170" width="300" height="3" fill="#475569"/>
  <rect x="50" y="177" width="310" height="3" fill="#475569"/>
  <rect x="50" y="184" width="280" height="3" fill="#475569"/>
  <rect x="50" y="191" width="290" height="3" fill="#475569"/>
  
  <!-- Sección 2 -->
  <rect x="50" y="220" width="60" height="6" fill="#0f172a"/>
  
  <rect x="50" y="240" width="90" height="5" fill="#334155"/>
  <rect x="300" y="240" width="50" height="4" fill="#94a3b8"/>
  <rect x="60" y="255" width="280" height="3" fill="#64748b"/>
  <rect x="60" y="262" width="290" height="3" fill="#64748b"/>
  
  <rect x="50" y="280" width="90" height="5" fill="#334155"/>
  <rect x="300" y="280" width="50" height="4" fill="#94a3b8"/>
  <rect x="60" y="295" width="280" height="3" fill="#64748b"/>
  <rect x="60" y="302" width="290" height="3" fill="#64748b"/>
  
  <!-- Sección 3 -->
  <rect x="50" y="330" width="60" height="6" fill="#0f172a"/>
  
  <rect x="50" y="350" width="85" height="5" fill="#334155"/>
  <rect x="300" y="350" width="50" height="4" fill="#94a3b8"/>
  
  <rect x="50" y="370" width="85" height="5" fill="#334155"/>
  <rect x="300" y="370" width="50" height="4" fill="#94a3b8"/>
  
  <!-- Sección 4 -->
  <rect x="50" y="405" width="60" height="6" fill="#0f172a"/>
  <rect x="60" y="425" width="40" height="4" fill="#64748b"/>
  <rect x="110" y="425" width="40" height="4" fill="#64748b"/>
  <rect x="160" y="425" width="40" height="4" fill="#64748b"/>
  <rect x="210" y="425" width="40" height="4" fill="#64748b"/>
</svg>
