<svg width="400" height="566" viewBox="0 0 400 566" xmlns="http://www.w3.org/2000/svg">
  <!-- Fondo -->
  <rect width="400" height="566" fill="#ffffff"/>
  
  <!-- Header startup style -->
  <rect width="400" height="100" fill="url(#gradStartup)"/>
  <defs>
    <linearGradient id="gradStartup" x1="0%" y1="0%" x2="100%" y2="0%">
      <stop offset="0%" style="stop-color:#f97316;stop-opacity:1" />
      <stop offset="100%" style="stop-color:#dc2626;stop-opacity:1" />
    </linearGradient>
  </defs>
  
  <rect x="40" y="30" width="130" height="14" fill="#ffffff"/>
  <rect x="40" y="50" width="90" height="6" fill="#ffffff" opacity="0.9"/>
  <rect x="40" y="65" width="100" height="5" fill="#ffffff" opacity="0.8"/>
  <rect x="40" y="75" width="95" height="5" fill="#ffffff" opacity="0.8"/>
  
  <!-- Layout en 2 columnas -->
  <rect x="40" y="130" width="140" height="8" fill="#f97316"/>
  <rect x="40" y="150" width="140" height="5" fill="#1f2937"/>
  <rect x="40" y="165" width="140" height="3" fill="#6b7280"/>
  <rect x="40" y="172" width="140" height="3" fill="#6b7280"/>
  <rect x="40" y="179" width="140" height="3" fill="#6b7280"/>
  
  <rect x="40" y="200" width="140" height="5" fill="#1f2937"/>
  <rect x="40" y="215" width="140" height="3" fill="#6b7280"/>
  <rect x="40" y="222" width="140" height="3" fill="#6b7280"/>
  
  <rect x="220" y="130" width="140" height="8" fill="#f97316"/>
  
  <rect x="220" y="150" width="100" height="6" fill="#1f2937"/>
  <rect x="220" y="162" width="70" height="4" fill="#6b7280"/>
  <rect x="220" y="175" width="140" height="3" fill="#9ca3af"/>
  <rect x="220" y="182" width="135" height="3" fill="#9ca3af"/>
  <rect x="220" y="189" width="130" height="3" fill="#9ca3af"/>
  
  <rect x="220" y="210" width="100" height="6" fill="#1f2937"/>
  <rect x="220" y="222" width="70" height="4" fill="#6b7280"/>
  <rect x="220" y="235" width="140" height="3" fill="#9ca3af"/>
  <rect x="220" y="242" width="135" height="3" fill="#9ca3af"/>
  
  <!-- Sección inferior -->
  <rect x="40" y="270" width="320" height="1" fill="#e5e7eb"/>
  
  <rect x="40" y="285" width="100" height="8" fill="#f97316"/>
  <rect x="50" y="305" width="50" height="20" rx="10" fill="#fed7aa"/>
  <rect x="110" y="305" width="50" height="20" rx="10" fill="#fed7aa"/>
  <rect x="170" y="305" width="50" height="20" rx="10" fill="#fed7aa"/>
  <rect x="230" y="305" width="50" height="20" rx="10" fill="#fed7aa"/>
</svg>
